<mxfile host="app.diagrams.net" modified="2023-04-25T04:37:18.698Z" agent="5.0 (Windows NT 10.0; Win64; x64) AppleWebKit/537.36 (KHTML, like Gecko) Chrome/112.0.0.0 Safari/537.36" etag="xUh3TE6DoXSXeLFj9Z7s" version="21.0.6" type="github">
  <diagram name="第 1 页" id="O2ksSTEGF0VSGLbOFb3n">
    <mxGraphModel dx="1338" dy="1035" grid="1" gridSize="10" guides="1" tooltips="1" connect="1" arrows="1" fold="1" page="1" pageScale="1" pageWidth="827" pageHeight="1169" math="0" shadow="0">
      <root>
        <mxCell id="0" />
        <mxCell id="1" parent="0" />
        <mxCell id="pmztKlHObr617AedX_ab-21" value="" style="rounded=0;whiteSpace=wrap;html=1;dashed=1;" parent="1" vertex="1">
          <mxGeometry x="800" y="130" width="290" height="180" as="geometry" />
        </mxCell>
        <mxCell id="pmztKlHObr617AedX_ab-13" value="" style="rounded=0;whiteSpace=wrap;html=1;dashed=1;" parent="1" vertex="1">
          <mxGeometry x="250" y="330" width="841" height="180" as="geometry" />
        </mxCell>
        <mxCell id="pmztKlHObr617AedX_ab-8" value="" style="rounded=0;whiteSpace=wrap;html=1;dashed=1;" parent="1" vertex="1">
          <mxGeometry x="250" y="130" width="520" height="180" as="geometry" />
        </mxCell>
        <mxCell id="pmztKlHObr617AedX_ab-5" style="edgeStyle=orthogonalEdgeStyle;rounded=0;orthogonalLoop=1;jettySize=auto;html=1;exitX=1;exitY=0.5;exitDx=0;exitDy=0;entryX=0;entryY=0.5;entryDx=0;entryDy=0;" parent="1" source="pmztKlHObr617AedX_ab-1" target="pmztKlHObr617AedX_ab-3" edge="1">
          <mxGeometry relative="1" as="geometry" />
        </mxCell>
        <mxCell id="pmztKlHObr617AedX_ab-1" value="" style="shape=image;verticalLabelPosition=bottom;verticalAlign=top;imageAspect=0;aspect=fixed;image=data:image/png,iVBORw0KGgoAAAANSUhEUgAAAEAAAABACAYAAACqaXHeAAAAAXNSR0IArs4c6QAAA9FJREFUeF7tm71uE0EQgGfORqKgMKahJBKOREdJgUT8JIlLm4ew8xDYpcOT2Ol4A6QYKfcCmJQU9g1aH4fvZ//3luzFlzLen5lvZ2dmd+cQTvwPT1x/aAG0FuCBQG/x/U0E3UsguvIwPABGa0yS2320Xz+M38Uuc3jZAv3Fj6U35QvaUgyIN9vx4NoWghcAL+ebFQJc2ArF70elfx9FJ4D1r8lgaDOfFwC9xeYCCab1Q5CoeLCEtyNTCF4AZEIwX2AqkKh9RN374m8UA2BxfISZ6XbwCqAu5dk4/fmmsAcS3J1F1Fm5QmgsgO1kgIdoU4FAMRJc//x8fqOzAI0GwBRMIVS3R4I4ehgP1ioI2gDS/dytbU8XBdvFqnhe3gLMArIxXn25uyLEZdlHJLgfqsZVAmAePSJYqUi6/y6P6TIAbG5bCFIA/cVmCgQzd+VMRqB4Ozk/K/dQATg4So68qhxBCMDnyjN3Lje9KgQdACIICcJQ5A+EcvDSWUbTZC0lbXsI8F46Vimx6c/v7oshj22ZiCMPvQDCjwD0OhtfZgViAKUJZRRNoXCs6xsB/K5kjrnExi295m8rJrcBgN2ZyqPqgigDYCtEuBvJEht+zNedESAfNfK9ggHADjOixCaL6ex3pO7S5ozRCADyxOYY0xmITtKRnjbLeUFjALjE9Lxp60aNoLZAQQFuDiJ2ZjZ5Q1BOkHehwUtskGikc9BpvAX88wfwbJq/XlNldpklBA6Af4IjwMoFJwI8B4APRxPX2wZBA2DK2CU2aRIt8uiNcYLicKdKbJ4QgAyCWWLzxABk6626bMG/9xFZzA5qC6iEVxl19rvs+krXof13H1A9ouqqy2sn9u5BAuBfQbkAABAduYME4OPGiN31847cQQLIDi0J4qXbuqe9I6KvohQ3WAB1KK4zRgug9CwWVBjUWUHXNq0FhGwBdTyBqy5bg7WA+kph0jt+UYFDkADaRMjDo2nDMsGaS+Ek1V5BbgHX0GbSvwUQchg0WUnbtq0FtBZQLJFTnQXKIbqm+oDqWb2+Ehq3+qD83WJapF0q65FUkVq/DYaQCOkugOiixelt8LEB6M6vqmyxtoD0m4Diu52tlwcw3wJqAHql9NYA7JU178kLg/wFoJi9LyLCWrdourEAzDHye7QARCQrr7cIswTgti7yuuNEgJVvj1R5gO7Y8ijwKGWyGqJbfhkiGllSKsurxdcQ0HMTVVgznV5asutanGgqjLw9xbrfAJjMq1Eun9bkURR9IiJP3wvIRTYJaybKS32A6UBNba+0gKYqpiv3yQP4A5Wm+m7fXY/SAAAAAElFTkSuQmCC" parent="1" vertex="1">
          <mxGeometry x="128" y="170" width="84" height="84" as="geometry" />
        </mxCell>
        <mxCell id="pmztKlHObr617AedX_ab-2" value="&lt;font style=&quot;font-size: 17px;&quot;&gt;输入：经过数据清洗后的信息数据&lt;/font&gt;" style="text;html=1;strokeColor=none;fillColor=none;align=center;verticalAlign=middle;whiteSpace=wrap;rounded=0;" parent="1" vertex="1">
          <mxGeometry x="119" y="270" width="102" height="30" as="geometry" />
        </mxCell>
        <mxCell id="pmztKlHObr617AedX_ab-7" style="edgeStyle=orthogonalEdgeStyle;rounded=0;orthogonalLoop=1;jettySize=auto;html=1;exitX=1;exitY=0.5;exitDx=0;exitDy=0;" parent="1" source="pmztKlHObr617AedX_ab-3" target="pmztKlHObr617AedX_ab-6" edge="1">
          <mxGeometry relative="1" as="geometry" />
        </mxCell>
        <mxCell id="pmztKlHObr617AedX_ab-3" value="&lt;p class=&quot;MsoNormal&quot;&gt;&lt;font style=&quot;font-size: 17px;&quot;&gt;检查配置数据结构是否符合预期。&lt;/font&gt;&lt;/p&gt;" style="rounded=0;whiteSpace=wrap;html=1;" parent="1" vertex="1">
          <mxGeometry x="280" y="182" width="170" height="60" as="geometry" />
        </mxCell>
        <mxCell id="pmztKlHObr617AedX_ab-11" style="edgeStyle=orthogonalEdgeStyle;rounded=0;orthogonalLoop=1;jettySize=auto;html=1;exitX=1;exitY=0.5;exitDx=0;exitDy=0;entryX=0;entryY=0.5;entryDx=0;entryDy=0;" parent="1" source="pmztKlHObr617AedX_ab-6" target="pmztKlHObr617AedX_ab-10" edge="1">
          <mxGeometry relative="1" as="geometry" />
        </mxCell>
        <mxCell id="pmztKlHObr617AedX_ab-6" value="&lt;p style=&quot;font-size: 17px;&quot; class=&quot;MsoNormal&quot;&gt;&lt;font face=&quot;Verdana&quot;&gt;&lt;font style=&quot;font-size: 17px;&quot;&gt;使用&lt;/font&gt;&lt;font style=&quot;font-size: 17px;&quot;&gt;inspect&lt;/font&gt;&lt;font style=&quot;font-size: 17px;&quot;&gt;三方库绘制检测路径图的基本结构和图元的模板样式&lt;/font&gt;&lt;/font&gt;&lt;/p&gt;" style="rounded=0;whiteSpace=wrap;html=1;" parent="1" vertex="1">
          <mxGeometry x="520" y="182" width="210" height="60" as="geometry" />
        </mxCell>
        <mxCell id="pmztKlHObr617AedX_ab-9" value="&lt;font style=&quot;font-size: 18px;&quot;&gt;&lt;b&gt;确定图的基本结构&lt;/b&gt;&lt;/font&gt;" style="text;html=1;strokeColor=none;fillColor=none;align=center;verticalAlign=middle;whiteSpace=wrap;rounded=0;" parent="1" vertex="1">
          <mxGeometry x="414" y="270" width="150" height="30" as="geometry" />
        </mxCell>
        <mxCell id="pmztKlHObr617AedX_ab-15" style="edgeStyle=orthogonalEdgeStyle;rounded=0;orthogonalLoop=1;jettySize=auto;html=1;exitX=0.5;exitY=1;exitDx=0;exitDy=0;" parent="1" source="pmztKlHObr617AedX_ab-10" target="pmztKlHObr617AedX_ab-12" edge="1">
          <mxGeometry relative="1" as="geometry" />
        </mxCell>
        <mxCell id="pmztKlHObr617AedX_ab-10" value="&lt;p style=&quot;font-size: 17px;&quot; class=&quot;MsoNormal&quot;&gt;&lt;font face=&quot;Verdana&quot;&gt;&lt;font style=&quot;font-size: 17px;&quot;&gt;创建&lt;/font&gt;&lt;font style=&quot;font-size: 17px;&quot;&gt;字典，为不同的属性建立对应关系。&lt;/font&gt;&lt;/font&gt;&lt;/p&gt;" style="rounded=0;whiteSpace=wrap;html=1;" parent="1" vertex="1">
          <mxGeometry x="830" y="182" width="210" height="60" as="geometry" />
        </mxCell>
        <mxCell id="pmztKlHObr617AedX_ab-17" style="edgeStyle=orthogonalEdgeStyle;rounded=0;orthogonalLoop=1;jettySize=auto;html=1;exitX=0;exitY=0.5;exitDx=0;exitDy=0;entryX=1;entryY=0.5;entryDx=0;entryDy=0;" parent="1" source="pmztKlHObr617AedX_ab-12" target="pmztKlHObr617AedX_ab-16" edge="1">
          <mxGeometry relative="1" as="geometry" />
        </mxCell>
        <mxCell id="pmztKlHObr617AedX_ab-12" value="&lt;p style=&quot;font-size: 17px;&quot; class=&quot;MsoNormal&quot;&gt;&lt;font face=&quot;Verdana&quot;&gt;遍历节点，确定所属ATT&amp;amp;CK阶段&lt;/font&gt;&lt;/p&gt;" style="rounded=0;whiteSpace=wrap;html=1;" parent="1" vertex="1">
          <mxGeometry x="830" y="370" width="210" height="60" as="geometry" />
        </mxCell>
        <mxCell id="pmztKlHObr617AedX_ab-14" value="&lt;font style=&quot;font-size: 18px;&quot;&gt;&lt;b&gt;生成检测路径图&lt;/b&gt;&lt;/font&gt;" style="text;html=1;strokeColor=none;fillColor=none;align=center;verticalAlign=middle;whiteSpace=wrap;rounded=0;" parent="1" vertex="1">
          <mxGeometry x="590" y="460" width="150" height="30" as="geometry" />
        </mxCell>
        <mxCell id="pmztKlHObr617AedX_ab-19" style="edgeStyle=orthogonalEdgeStyle;rounded=0;orthogonalLoop=1;jettySize=auto;html=1;exitX=0;exitY=0.5;exitDx=0;exitDy=0;entryX=1;entryY=0.5;entryDx=0;entryDy=0;" parent="1" source="pmztKlHObr617AedX_ab-16" target="pmztKlHObr617AedX_ab-18" edge="1">
          <mxGeometry relative="1" as="geometry" />
        </mxCell>
        <mxCell id="pmztKlHObr617AedX_ab-16" value="&lt;p style=&quot;font-size: 17px;&quot; class=&quot;MsoNormal&quot;&gt;&lt;font face=&quot;Verdana&quot;&gt;确认横纵坐标，记录节点位置&lt;/font&gt;&lt;/p&gt;" style="rounded=0;whiteSpace=wrap;html=1;" parent="1" vertex="1">
          <mxGeometry x="560" y="370" width="230" height="60" as="geometry" />
        </mxCell>
        <mxCell id="pmztKlHObr617AedX_ab-18" value="&lt;p style=&quot;font-size: 17px;&quot; class=&quot;MsoNormal&quot;&gt;&lt;font face=&quot;Verdana&quot;&gt;连接节点，生成矢量图。&lt;/font&gt;&lt;/p&gt;" style="rounded=0;whiteSpace=wrap;html=1;" parent="1" vertex="1">
          <mxGeometry x="290" y="370" width="210" height="60" as="geometry" />
        </mxCell>
        <mxCell id="pmztKlHObr617AedX_ab-22" value="&lt;font style=&quot;font-size: 18px;&quot;&gt;&lt;b&gt;建立索引&lt;/b&gt;&lt;/font&gt;" style="text;html=1;strokeColor=none;fillColor=none;align=center;verticalAlign=middle;whiteSpace=wrap;rounded=0;" parent="1" vertex="1">
          <mxGeometry x="900" y="270" width="150" height="30" as="geometry" />
        </mxCell>
      </root>
    </mxGraphModel>
  </diagram>
</mxfile>
